<svg xmlns="http://www.w3.org/2000/svg" width="95" height="20" viewBox="0 0 95 20" fill="none">
<path d="M0 3.10552V0.570007H11.946V3.10552H7.4929V15.1155H4.45312V3.10552H0Z" fill="#364FC7"/>
<path d="M17.2461 15.3285C16.1239 15.3285 15.158 15.1013 14.3484 14.6467C13.5434 14.1874 12.9232 13.5388 12.4876 12.7007C12.052 11.8579 11.8342 10.8612 11.8342 9.71063C11.8342 8.58847 12.052 7.60363 12.4876 6.75609C12.9232 5.90855 13.5363 5.24804 14.3271 4.77455C15.1225 4.30107 16.0553 4.06433 17.1254 4.06433C17.8451 4.06433 18.515 4.18033 19.1353 4.41234C19.7603 4.63961 20.3048 4.98289 20.7688 5.44217C21.2376 5.90145 21.6022 6.4791 21.8626 7.17512C22.123 7.86641 22.2532 8.67607 22.2532 9.6041V10.4351H13.0415V8.56006H19.4052C19.4052 8.12446 19.3105 7.73857 19.1211 7.40239C18.9317 7.06622 18.6689 6.80344 18.3327 6.61404C18.0013 6.41991 17.6154 6.32285 17.1751 6.32285C16.7158 6.32285 16.3086 6.42938 15.9535 6.64245C15.6031 6.85078 15.3285 7.13251 15.1296 7.48762C14.9308 7.838 14.829 8.22863 14.8242 8.6595V10.4422C14.8242 10.9819 14.9237 11.4483 15.1225 11.8413C15.3261 12.2343 15.6126 12.5373 15.9819 12.7504C16.3512 12.9635 16.7892 13.07 17.2958 13.07C17.632 13.07 17.9397 13.0227 18.2191 12.928C18.4985 12.8333 18.7376 12.6912 18.9364 12.5018C19.1353 12.3124 19.2868 12.0804 19.391 11.8058L22.1893 11.9905C22.0472 12.6628 21.756 13.2499 21.3157 13.7518C20.8801 14.249 20.3166 14.6372 19.6254 14.9166C18.9388 15.1912 18.1457 15.3285 17.2461 15.3285Z" fill="#364FC7"/>
<path d="M29.1566 15.3285C28.0392 15.3285 27.078 15.0918 26.2731 14.6183C25.4729 14.1401 24.8574 13.4772 24.4265 12.6297C24.0004 11.7821 23.7873 10.8068 23.7873 9.70353C23.7873 8.58611 24.0027 7.60599 24.4336 6.76319C24.8692 5.91565 25.4871 5.25514 26.2873 4.78165C27.0875 4.30344 28.0392 4.06433 29.1424 4.06433C30.0941 4.06433 30.9274 4.23715 31.6424 4.58279C32.3574 4.92844 32.9232 5.41376 33.3398 6.03876C33.7565 6.66376 33.9861 7.39766 34.0288 8.24046H31.1737C31.0932 7.69595 30.8801 7.25798 30.5344 6.92654C30.1935 6.59037 29.7461 6.42228 29.1921 6.42228C28.7234 6.42228 28.3138 6.55012 27.9634 6.8058C27.6178 7.05675 27.3479 7.4237 27.1538 7.90666C26.9596 8.38961 26.8626 8.97436 26.8626 9.66092C26.8626 10.3569 26.9573 10.9488 27.1467 11.4365C27.3408 11.9242 27.613 12.2959 27.9634 12.5515C28.3138 12.8072 28.7234 12.9351 29.1921 12.9351C29.5378 12.9351 29.8479 12.864 30.1225 12.722C30.4019 12.58 30.6315 12.374 30.8114 12.1041C30.9961 11.8295 31.1168 11.5004 31.1737 11.1169H34.0288C33.9814 11.9502 33.7541 12.6841 33.3469 13.3186C32.9445 13.9483 32.3881 14.4407 31.6779 14.7959C30.9677 15.151 30.1272 15.3285 29.1566 15.3285Z" fill="#364FC7"/>
<path d="M38.9915 8.80864V15.1155H35.9659V0.570007H38.9062V6.13109H39.0341C39.2803 5.48715 39.678 4.98289 40.2273 4.6183C40.7765 4.24898 41.4654 4.06433 42.294 4.06433C43.0516 4.06433 43.7121 4.23005 44.2756 4.56148C44.8438 4.88819 45.2841 5.35931 45.5966 5.97484C45.9138 6.58563 46.0701 7.31717 46.0653 8.16944V15.1155H43.0398V8.70921C43.0445 8.03686 42.8741 7.51366 42.5284 7.13961C42.1875 6.76556 41.7093 6.57853 41.0938 6.57853C40.6818 6.57853 40.3172 6.66613 40 6.84131C39.6875 7.0165 39.4413 7.27219 39.2614 7.60836C39.0862 7.9398 38.9962 8.33989 38.9915 8.80864Z" fill="#364FC7"/>
<path d="M53.1321 15.1155V0.570007H58.956C60.026 0.570007 60.9186 0.728625 61.6335 1.04586C62.3485 1.36309 62.8859 1.80344 63.2457 2.36688C63.6056 2.92559 63.7855 3.56953 63.7855 4.2987C63.7855 4.86688 63.6719 5.36641 63.4446 5.79728C63.2173 6.22342 62.9048 6.5738 62.5071 6.84842C62.1141 7.1183 61.6643 7.31006 61.1577 7.4237V7.56575C61.7116 7.58942 62.2301 7.74567 62.7131 8.0345C63.2008 8.32332 63.5961 8.72815 63.8991 9.24899C64.2022 9.76508 64.3537 10.3806 64.3537 11.0956C64.3537 11.8674 64.1619 12.5563 63.7784 13.1623C63.3996 13.7637 62.8385 14.2395 62.0952 14.5899C61.3518 14.9403 60.4356 15.1155 59.3466 15.1155H53.1321ZM56.2074 12.6013H58.7145C59.5715 12.6013 60.1965 12.4379 60.5895 12.1112C60.9825 11.7798 61.179 11.3394 61.179 10.7902C61.179 10.3877 61.0819 10.0326 60.8878 9.72484C60.6937 9.41707 60.4167 9.17559 60.0568 9.00041C59.7017 8.82522 59.2779 8.73762 58.7855 8.73762H56.2074V12.6013ZM56.2074 6.65666H58.4872C58.9086 6.65666 59.2827 6.58327 59.6094 6.43648C59.9408 6.28497 60.2012 6.0719 60.3906 5.79728C60.5848 5.52266 60.6818 5.19359 60.6818 4.81006C60.6818 4.2845 60.4948 3.86073 60.1207 3.53876C59.7514 3.21679 59.2258 3.0558 58.544 3.0558H56.2074V6.65666Z" fill="#364FC7"/>
<path d="M69.3235 0.570007V15.1155H66.2979V0.570007H69.3235Z" fill="#364FC7"/>
<path d="M76.6761 15.3285C75.5729 15.3285 74.6188 15.0942 73.8139 14.6254C73.0137 14.1519 72.3958 13.4938 71.9602 12.651C71.5246 11.8034 71.3068 10.821 71.3068 9.70353C71.3068 8.57664 71.5246 7.59179 71.9602 6.74898C72.3958 5.90145 73.0137 5.2433 73.8139 4.77455C74.6188 4.30107 75.5729 4.06433 76.6761 4.06433C77.7794 4.06433 78.7311 4.30107 79.5312 4.77455C80.3362 5.2433 80.9564 5.90145 81.392 6.74898C81.8277 7.59179 82.0455 8.57664 82.0455 9.70353C82.0455 10.821 81.8277 11.8034 81.392 12.651C80.9564 13.4938 80.3362 14.1519 79.5312 14.6254C78.7311 15.0942 77.7794 15.3285 76.6761 15.3285ZM76.6903 12.9848C77.1922 12.9848 77.6113 12.8427 77.9474 12.5586C78.2836 12.2698 78.5369 11.8768 78.7074 11.3797C78.8826 10.8825 78.9702 10.3167 78.9702 9.68222C78.9702 9.04775 78.8826 8.48194 78.7074 7.98478C78.5369 7.48762 78.2836 7.09463 77.9474 6.8058C77.6113 6.51698 77.1922 6.37256 76.6903 6.37256C76.1837 6.37256 75.7576 6.51698 75.4119 6.8058C75.071 7.09463 74.813 7.48762 74.6378 7.98478C74.4673 8.48194 74.3821 9.04775 74.3821 9.68222C74.3821 10.3167 74.4673 10.8825 74.6378 11.3797C74.813 11.8768 75.071 12.2698 75.4119 12.5586C75.7576 12.8427 76.1837 12.9848 76.6903 12.9848Z" fill="#364FC7"/>
<path d="M88.9276 19.4336C87.9474 19.4336 87.107 19.2987 86.4062 19.0288C85.7102 18.7637 85.1562 18.4014 84.7443 17.9422C84.3324 17.4829 84.0649 16.9668 83.9418 16.3939L86.7401 16.0175C86.8253 16.2353 86.9602 16.4389 87.1449 16.6282C87.3296 16.8176 87.5734 16.9692 87.8764 17.0828C88.1842 17.2012 88.5582 17.2603 88.9986 17.2603C89.6567 17.2603 90.1989 17.0994 90.625 16.7774C91.0559 16.4602 91.2713 15.9275 91.2713 15.1794V13.1836H91.1435C91.0109 13.4867 90.812 13.7731 90.5469 14.043C90.2817 14.3129 89.9408 14.5331 89.5241 14.7035C89.1075 14.874 88.6103 14.9592 88.0327 14.9592C87.2135 14.9592 86.4678 14.7698 85.7955 14.391C85.1278 14.0075 84.5952 13.4228 84.1974 12.6368C83.8045 11.846 83.608 10.847 83.608 9.63961C83.608 8.40381 83.8092 7.37162 84.2116 6.54302C84.6141 5.71442 85.1492 5.09415 85.8168 4.68222C86.4891 4.27029 87.2254 4.06433 88.0256 4.06433C88.6364 4.06433 89.1477 4.16849 89.5597 4.37683C89.9716 4.58042 90.303 4.83611 90.554 5.14387C90.8097 5.4469 91.0061 5.7452 91.1435 6.03876H91.2571V4.20637H94.2614V15.222C94.2614 16.15 94.0341 16.9265 93.5795 17.5515C93.125 18.1765 92.4953 18.6453 91.6903 18.9578C90.8902 19.275 89.9692 19.4336 88.9276 19.4336ZM88.9915 12.6865C89.4792 12.6865 89.8911 12.5657 90.2273 12.3243C90.5682 12.0781 90.8286 11.7277 91.0085 11.2731C91.1932 10.8139 91.2855 10.2646 91.2855 9.62541C91.2855 8.9862 91.1955 8.43222 91.0156 7.96347C90.8357 7.48999 90.5753 7.12304 90.2344 6.86262C89.8935 6.6022 89.4792 6.472 88.9915 6.472C88.4943 6.472 88.0753 6.60694 87.7344 6.87683C87.3935 7.14198 87.1354 7.5113 86.9602 7.98478C86.785 8.45826 86.6974 9.00514 86.6974 9.62541C86.6974 10.2551 86.785 10.7996 86.9602 11.2589C87.1402 11.7135 87.3982 12.0662 87.7344 12.3172C88.0753 12.5634 88.4943 12.6865 88.9915 12.6865Z" fill="#364FC7"/>
</svg>