<svg width="1190" height="587" fill="none" xmlns="http://www.w3.org/2000/svg">
<path d="M834.152 118.664C830.25 117.5 826.102 119.617 824.78 123.499C823.457 127.383 825.453 131.595 829.255 133.052C829.346 133.089 829.439 133.123 829.532 133.155C833.506 134.509 837.829 132.378 839.182 128.401C840.534 124.429 838.407 120.106 834.434 118.754C834.337 118.72 834.245 118.692 834.152 118.664Z" fill="#1F7560"/>
<path d="M812.238 140.75C812.331 140.785 812.422 140.82 812.515 140.853C816.487 142.205 820.81 140.076 822.166 136.099C823.515 132.127 821.388 127.805 817.416 126.453C817.322 126.42 817.228 126.393 817.136 126.365C813.236 125.201 809.084 127.32 807.763 131.199C806.442 135.081 808.438 139.291 812.238 140.75Z" fill="#1F7560"/>
<path d="M792.069 123.734C792.184 123.778 792.303 123.823 792.422 123.864C797.483 125.585 802.989 122.875 804.714 117.807C806.438 112.745 803.728 107.24 798.663 105.514C798.545 105.476 798.424 105.44 798.306 105.403C793.336 103.92 788.052 106.62 786.369 111.563C784.684 116.513 787.228 121.877 792.069 123.734Z" fill="#1F7560"/>
<path d="M817.447 174.186C821.419 175.538 825.742 173.41 827.096 169.434C828.448 165.461 826.32 161.138 822.345 159.787C822.253 159.756 822.158 159.727 822.064 159.699C818.164 158.538 814.016 160.654 812.692 164.533C811.37 168.418 813.367 172.63 817.166 174.087C817.262 174.121 817.354 174.156 817.447 174.186Z" fill="#1F7560"/>
<path d="M806.095 158.522C810.576 160.045 815.448 157.649 816.974 153.164C818.497 148.687 816.099 143.817 811.62 142.291C811.516 142.256 811.409 142.222 811.305 142.191C806.908 140.88 802.23 143.267 800.743 147.638C799.251 152.017 801.502 156.764 805.787 158.407C805.888 158.448 805.991 158.489 806.095 158.522Z" fill="#1F7560"/>
<path d="M813.618 124.039C813.73 124.083 813.845 124.124 813.959 124.166C818.861 125.833 824.194 123.209 825.867 118.299C827.534 113.395 824.909 108.065 820.006 106.395C819.89 106.359 819.776 106.322 819.66 106.288C814.847 104.852 809.728 107.464 808.1 112.252C806.465 117.045 808.928 122.242 813.618 124.039Z" fill="#1F7560"/>
<path d="M770.042 160.156C774.945 161.825 780.279 159.2 781.948 154.291C783.614 149.388 780.989 144.058 776.09 142.388C775.973 142.349 775.857 142.315 775.741 142.281C770.931 140.845 765.81 143.457 764.18 148.245C762.55 153.038 765.011 158.232 769.701 160.032C769.815 160.073 769.928 160.117 770.042 160.156Z" fill="#1F7560"/>
<path d="M792.463 148.442C792.604 148.424 792.75 148.402 792.893 148.376C799.025 147.263 803.098 141.381 801.984 135.243C800.87 129.114 794.991 125.041 788.858 126.153C788.715 126.179 788.573 126.212 788.431 126.243C782.529 127.547 778.673 133.289 779.76 139.278C780.849 145.271 786.478 149.296 792.463 148.442Z" fill="#1F7560"/>
<path d="M795.483 153.146C795.33 153.109 795.177 153.075 795.023 153.045C788.684 151.72 782.386 155.631 780.808 161.964C779.229 168.3 782.957 174.711 789.181 176.515C789.33 176.559 789.482 176.603 789.632 176.64C796.115 178.253 802.683 174.299 804.301 167.81C805.914 161.329 801.965 154.76 795.483 153.146Z" fill="#1F7560"/>
<path d="M875.021 139.809C875.123 139.843 875.223 139.879 875.325 139.911C879.67 141.251 884.283 138.81 885.627 134.46C886.969 130.117 884.528 125.502 880.181 124.162C880.078 124.131 879.978 124.102 879.876 124.075C875.612 122.936 871.186 125.361 869.877 129.602C868.567 133.85 870.862 138.347 875.021 139.809Z" fill="#1F7560"/>
<path d="M865.223 147.37C867.488 146.945 868.98 144.761 868.553 142.494C868.129 140.231 865.949 138.738 863.679 139.163C863.628 139.176 863.577 139.185 863.524 139.198C861.346 139.691 859.931 141.826 860.347 144.038C860.763 146.252 862.852 147.727 865.062 147.398C865.118 147.387 865.172 147.38 865.223 147.37Z" fill="#1F7560"/>
<path d="M876.988 123.125C877.087 123.111 877.19 123.097 877.291 123.078C881.599 122.267 884.439 118.112 883.627 113.797C882.816 109.49 878.663 106.653 874.355 107.462C874.255 107.482 874.157 107.504 874.055 107.527C869.91 108.472 867.224 112.528 868.014 116.737C868.802 120.945 872.783 123.75 876.988 123.125Z" fill="#1F7560"/>
<path d="M900.997 114.156C903.987 117.228 908.849 117.366 912.009 114.519C912.084 114.451 912.16 114.383 912.234 114.309C915.374 111.253 915.442 106.222 912.382 103.075C909.325 99.935 904.294 99.8673 901.156 102.922C901.08 102.997 901.009 103.072 900.939 103.144C898.009 106.224 898.01 111.09 900.997 114.156Z" fill="#1F7560"/>
<path d="M879.312 105.287C882.573 110.008 888.967 111.273 893.769 108.217C893.884 108.144 894.001 108.071 894.115 107.991C898.944 104.655 900.154 98.026 896.811 93.1916C893.476 88.367 886.846 87.1567 882.02 90.4922C881.906 90.5741 881.799 90.6552 881.685 90.7346C877.133 94.1476 876.056 100.574 879.312 105.287Z" fill="#1F7560"/>
<path d="M903.384 120.316C901.853 115.224 896.476 112.334 891.382 113.866C891.261 113.903 891.146 113.942 891.026 113.981C886.147 115.656 883.426 120.896 884.925 125.871C886.42 130.85 891.583 133.722 896.574 132.425C896.697 132.394 896.814 132.364 896.937 132.327C902.027 130.796 904.921 125.418 903.384 120.316Z" fill="#1F7560"/>
<path d="M892.594 149.307C892.694 149.299 892.79 149.29 892.89 149.278C897.105 148.782 900.123 144.957 899.627 140.739C899.13 136.526 895.307 133.508 891.091 134.004C890.992 134.016 890.896 134.032 890.797 134.045C886.732 134.682 883.864 138.421 884.349 142.538C884.834 146.659 888.493 149.632 892.594 149.307Z" fill="#1F7560"/>
<path d="M905.735 151.39C905.815 151.41 905.895 151.428 905.979 151.446C909.466 152.133 912.857 149.862 913.546 146.37C914.233 142.882 911.962 139.494 908.474 138.805C908.392 138.786 908.309 138.776 908.227 138.76C904.824 138.223 901.576 140.466 900.904 143.872C900.228 147.285 902.381 150.595 905.735 151.39Z" fill="#1F7560"/>
<path d="M884.988 146.94C882.405 142.547 876.738 141.08 872.344 143.666C872.242 143.726 872.142 143.792 872.04 143.857C867.879 146.525 866.538 152.022 869.062 156.311C871.59 160.608 877.048 162.108 881.402 159.764C881.508 159.706 881.615 159.651 881.715 159.591C886.11 157.008 887.575 151.341 884.988 146.94Z" fill="#1F7560"/>
<path d="M859.385 163.615C859.922 166.511 862.653 168.45 865.544 168.027C865.614 168.016 865.685 168.006 865.752 167.993C868.717 167.443 870.676 164.592 870.128 161.626C869.576 158.664 866.727 156.704 863.764 157.252C863.692 157.265 863.624 157.283 863.555 157.298C860.706 157.939 858.848 160.724 859.385 163.615Z" fill="#1F7560"/>
<path d="M883.133 196.307C882.992 196.39 882.858 196.478 882.723 196.563C878.847 199.051 876.78 203.354 876.98 207.687C876.787 207.81 876.597 207.931 876.405 208.058C870.258 212.091 866.619 215.122 864.784 218.569C864.209 214.561 863.935 212.332 863.6 208.381C863.412 207.004 863.238 205.753 863.081 204.639C862.608 201.299 862.33 199.229 862.297 198.947C862.125 197.488 878.984 178.221 886.632 169.567C889.093 173.152 893.347 175.336 897.946 174.972C898.104 174.96 898.269 174.948 898.429 174.929C905.286 174.122 910.197 167.897 909.389 161.033C908.582 154.176 902.359 149.264 895.502 150.072C895.342 150.091 895.179 150.116 895.021 150.139C888.406 151.177 883.744 157.262 884.532 163.958C884.732 165.658 885.267 167.239 886.06 168.643C881.414 173.026 864.256 190.104 861.834 192.047C861.512 191.64 861.195 190.13 860.888 187.836C860.145 176.257 858.692 163.916 858.407 151.967C858.361 151 858.318 150.037 858.274 149.097C858.129 145.874 857.999 142.908 857.898 140.401C859.17 140.146 860.426 139.706 861.625 139.069C861.778 138.988 861.939 138.903 862.088 138.816C868.618 135.027 870.839 126.651 867.044 120.115C863.257 113.588 854.883 111.366 848.355 115.156C848.2 115.24 848.049 115.336 847.9 115.429C841.715 119.345 839.681 127.473 843.382 133.846C845.816 138.036 850.13 140.455 854.637 140.648C854.488 142.022 854.41 143.759 854.383 145.74C854.364 147.187 854.376 148.761 854.404 150.395C854.614 158.832 854.979 167.826 855.948 176.055C851.112 170.373 847.432 164.557 843.823 158.495C846.291 156.033 847.829 152.633 847.847 148.868C847.885 141.322 841.788 135.168 834.24 135.13C834.062 135.13 833.887 135.135 833.712 135.142C826.395 135.385 820.528 141.365 820.492 148.735C820.455 156.115 826.265 162.157 833.576 162.472C833.753 162.478 833.929 162.485 834.107 162.487C836.744 162.501 839.208 161.763 841.303 160.48C846.83 170.09 854.783 179.891 854.983 190.276C855.038 191.126 855.138 192.053 855.261 193.102C855.539 195.464 855.941 198.461 856.243 202.654C856.341 204.053 856.43 205.586 856.496 207.273C855.88 206.592 855.251 205.926 854.609 205.266C853.968 204.613 853.315 203.971 852.654 203.339C851.989 202.709 851.315 202.094 850.631 201.495C846.809 198.803 843.053 195.761 839.148 192.924C840.475 189.761 840.505 186.068 838.924 182.724C835.973 176.482 828.509 173.811 822.265 176.763C822.12 176.833 821.976 176.907 821.834 176.98C815.892 180.073 813.415 187.326 816.297 193.421C819.183 199.524 826.363 202.215 832.524 199.586C832.672 199.523 832.82 199.46 832.967 199.39C835.287 198.295 837.109 196.571 838.339 194.524C842.078 197.189 845.543 200.286 848.46 204.134C849.379 205.293 850.196 206.45 850.926 207.593C858.294 219.573 856.182 233.007 857.204 246.474C857.225 247.273 857.25 248.087 857.275 248.918C857.324 250.716 857.38 252.591 857.439 254.504C857.823 266.996 858.352 281.256 858.592 287.675C861.826 288.833 865.46 289.289 869.228 288.846C872.986 288.403 876.406 287.118 879.28 285.253C877.213 279.199 873.673 266.859 870.783 252.373C870.315 250.033 869.862 247.639 869.44 245.2C869.244 244.138 869.057 243.074 868.87 242.009C867.503 235.418 866.21 228.586 865.194 221.747C868.019 218.338 872.862 214.195 877.494 210.64C877.776 211.598 878.167 212.538 878.698 213.439C882.123 219.258 889.517 221.284 895.413 218.108C895.554 218.032 895.699 217.953 895.835 217.871C901.788 214.364 903.772 206.691 900.263 200.735C896.756 194.787 889.084 192.8 883.133 196.307Z" fill="#1F7560"/>
<path d="M853.655 75.6206C850.402 75.6592 847.51 77.0631 845.215 79.3914C843.624 75.1873 841.491 70.4109 840.367 68.9613C839.01 67.2666 833.871 69.2467 835.454 70.8199C837.037 72.3936 840.278 76.3074 842.775 80.0263C839.636 79.3984 836.514 79.8715 833.821 81.5829C827.053 86.0051 825.758 96.666 830.906 105.478C836.005 114.305 845.63 117.915 852.365 113.556C852.933 113.173 853.439 112.756 853.929 112.292C854.596 112.405 855.247 112.471 855.933 112.474C863.954 112.358 869.953 104.009 869.29 93.8367C868.675 83.6499 861.676 75.5046 853.655 75.6206Z" fill="#B9334D"/>
<path d="M761.724 361.375L771.15 334.239H775.742L763.899 366.231H760.625L761.724 361.375ZM752.913 334.239L762.251 361.375L763.416 366.231H760.142L748.32 334.239H752.913ZM783.85 342.456V366.231H779.763V342.456H783.85ZM779.456 336.15C779.456 335.491 779.653 334.934 780.049 334.48C780.459 334.026 781.06 333.799 781.851 333.799C782.627 333.799 783.22 334.026 783.63 334.48C784.055 334.934 784.268 335.491 784.268 336.15C784.268 336.78 784.055 337.322 783.63 337.776C783.22 338.216 782.627 338.435 781.851 338.435C781.06 338.435 780.459 338.216 780.049 337.776C779.653 337.322 779.456 336.78 779.456 336.15ZM805.361 361.617V332.481H809.448V366.231H805.713L805.361 361.617ZM789.365 354.607V354.146C789.365 352.329 789.585 350.681 790.024 349.202C790.479 347.708 791.116 346.426 791.936 345.357C792.771 344.287 793.76 343.467 794.902 342.896C796.06 342.31 797.349 342.017 798.77 342.017C800.264 342.017 801.567 342.281 802.681 342.808C803.809 343.321 804.761 344.075 805.537 345.071C806.328 346.053 806.951 347.239 807.405 348.631C807.859 350.022 808.174 351.597 808.35 353.355V355.376C808.188 357.119 807.874 358.687 807.405 360.078C806.951 361.47 806.328 362.657 805.537 363.638C804.761 364.619 803.809 365.374 802.681 365.901C801.553 366.414 800.234 366.67 798.726 366.67C797.334 366.67 796.06 366.37 794.902 365.769C793.76 365.169 792.771 364.326 791.936 363.242C791.116 362.159 790.479 360.884 790.024 359.419C789.585 357.94 789.365 356.336 789.365 354.607ZM793.452 354.146V354.607C793.452 355.794 793.569 356.907 793.804 357.947C794.053 358.987 794.434 359.903 794.946 360.694C795.459 361.485 796.111 362.107 796.902 362.561C797.693 363.001 798.638 363.221 799.736 363.221C801.084 363.221 802.19 362.935 803.054 362.364C803.933 361.792 804.636 361.038 805.164 360.1C805.691 359.163 806.101 358.145 806.394 357.046V351.751C806.218 350.945 805.962 350.169 805.625 349.422C805.303 348.66 804.878 347.986 804.351 347.4C803.838 346.8 803.201 346.324 802.439 345.972C801.692 345.62 800.806 345.445 799.78 345.445C798.667 345.445 797.708 345.679 796.902 346.148C796.111 346.602 795.459 347.232 794.946 348.037C794.434 348.828 794.053 349.751 793.804 350.806C793.569 351.846 793.452 352.959 793.452 354.146ZM829.795 362.166V349.927C829.795 348.99 829.604 348.177 829.224 347.488C828.857 346.785 828.301 346.243 827.554 345.862C826.807 345.481 825.884 345.291 824.785 345.291C823.76 345.291 822.859 345.467 822.083 345.818C821.321 346.17 820.72 346.631 820.281 347.202C819.856 347.774 819.644 348.389 819.644 349.048H815.579C815.579 348.199 815.798 347.356 816.238 346.521C816.677 345.686 817.307 344.932 818.127 344.258C818.962 343.57 819.958 343.028 821.116 342.632C822.288 342.222 823.591 342.017 825.027 342.017C826.755 342.017 828.279 342.31 829.597 342.896C830.93 343.482 831.97 344.368 832.717 345.555C833.479 346.726 833.86 348.199 833.86 349.971V361.045C833.86 361.836 833.926 362.679 834.058 363.572C834.204 364.466 834.417 365.235 834.695 365.879V366.231H830.454C830.249 365.762 830.088 365.139 829.971 364.363C829.854 363.572 829.795 362.84 829.795 362.166ZM830.498 351.817L830.542 354.673H826.433C825.276 354.673 824.243 354.768 823.335 354.959C822.427 355.135 821.665 355.406 821.05 355.772C820.435 356.138 819.966 356.599 819.644 357.156C819.321 357.698 819.16 358.335 819.16 359.068C819.16 359.815 819.329 360.496 819.666 361.111C820.002 361.726 820.508 362.217 821.182 362.583C821.87 362.935 822.712 363.111 823.708 363.111C824.954 363.111 826.052 362.847 827.004 362.32C827.957 361.792 828.711 361.148 829.268 360.386C829.839 359.624 830.146 358.885 830.19 358.167L831.926 360.122C831.824 360.738 831.545 361.419 831.091 362.166C830.637 362.913 830.029 363.631 829.268 364.319C828.521 364.993 827.627 365.557 826.587 366.011C825.562 366.451 824.404 366.67 823.115 366.67C821.504 366.67 820.09 366.355 818.875 365.725C817.673 365.096 816.736 364.253 816.062 363.199C815.403 362.129 815.073 360.935 815.073 359.617C815.073 358.343 815.322 357.222 815.82 356.255C816.318 355.274 817.036 354.461 817.974 353.816C818.911 353.157 820.039 352.659 821.357 352.322C822.676 351.985 824.148 351.817 825.774 351.817H830.498Z" fill="#B9334D"/>
<path d="M846.604 334.239V366.231H840.012V334.239H846.604ZM859.348 347.906V353.047H844.802V347.906H859.348ZM860.886 334.239V339.402H844.802V334.239H860.886ZM870.071 347.642V366.231H863.743V342.456H869.697L870.071 347.642ZM877.234 342.303L877.124 348.169C876.816 348.125 876.443 348.089 876.003 348.059C875.579 348.015 875.19 347.993 874.839 347.993C873.945 347.993 873.169 348.111 872.51 348.345C871.865 348.565 871.323 348.894 870.884 349.334C870.459 349.773 870.137 350.308 869.917 350.938C869.712 351.568 869.595 352.285 869.565 353.091L868.291 352.696C868.291 351.158 868.445 349.744 868.752 348.455C869.06 347.151 869.507 346.016 870.093 345.049C870.693 344.082 871.426 343.335 872.29 342.808C873.154 342.281 874.143 342.017 875.256 342.017C875.608 342.017 875.967 342.046 876.333 342.105C876.699 342.149 877 342.215 877.234 342.303ZM894.285 360.54V342.456H900.613V366.231H894.658L894.285 360.54ZM894.988 355.662L896.855 355.618C896.855 357.2 896.672 358.672 896.306 360.034C895.94 361.382 895.391 362.554 894.658 363.55C893.926 364.532 893.003 365.301 891.89 365.857C890.776 366.399 889.465 366.67 887.957 366.67C886.799 366.67 885.73 366.509 884.749 366.187C883.782 365.85 882.947 365.33 882.244 364.627C881.555 363.909 881.013 362.993 880.618 361.88C880.237 360.752 880.046 359.397 880.046 357.815V342.456H886.375V357.859C886.375 358.562 886.455 359.156 886.616 359.639C886.792 360.122 887.034 360.518 887.341 360.826C887.649 361.133 888.008 361.353 888.418 361.485C888.843 361.617 889.312 361.682 889.824 361.682C891.128 361.682 892.153 361.419 892.9 360.891C893.662 360.364 894.197 359.646 894.504 358.738C894.827 357.815 894.988 356.79 894.988 355.662ZM917.092 342.456V346.939H903.25V342.456H917.092ZM906.677 336.59H913.005V359.068C913.005 359.756 913.093 360.284 913.269 360.65C913.459 361.016 913.738 361.272 914.104 361.419C914.47 361.551 914.932 361.617 915.488 361.617C915.884 361.617 916.235 361.602 916.543 361.573C916.865 361.529 917.136 361.485 917.356 361.441L917.378 366.099C916.836 366.275 916.25 366.414 915.62 366.516C914.99 366.619 914.294 366.67 913.533 366.67C912.141 366.67 910.925 366.443 909.885 365.989C908.86 365.52 908.069 364.773 907.512 363.748C906.956 362.722 906.677 361.375 906.677 359.705V336.59ZM933.528 360.869V350.279C933.528 349.517 933.403 348.865 933.154 348.323C932.905 347.766 932.517 347.334 931.99 347.027C931.477 346.719 930.811 346.565 929.99 346.565C929.287 346.565 928.679 346.69 928.167 346.939C927.654 347.173 927.258 347.517 926.98 347.971C926.702 348.411 926.562 348.931 926.562 349.532H920.234C920.234 348.521 920.469 347.561 920.938 346.653C921.406 345.745 922.087 344.947 922.981 344.258C923.875 343.555 924.937 343.006 926.167 342.61C927.412 342.215 928.804 342.017 930.342 342.017C932.188 342.017 933.828 342.325 935.264 342.94C936.699 343.555 937.827 344.478 938.647 345.708C939.482 346.939 939.9 348.477 939.9 350.323V360.496C939.9 361.8 939.98 362.869 940.142 363.704C940.303 364.524 940.537 365.242 940.845 365.857V366.231H934.451C934.143 365.586 933.909 364.781 933.748 363.814C933.601 362.832 933.528 361.851 933.528 360.869ZM934.363 351.751L934.407 355.332H930.869C930.034 355.332 929.309 355.428 928.694 355.618C928.079 355.808 927.573 356.079 927.178 356.431C926.782 356.768 926.489 357.163 926.299 357.617C926.123 358.072 926.035 358.57 926.035 359.112C926.035 359.654 926.16 360.144 926.409 360.584C926.658 361.009 927.017 361.346 927.485 361.595C927.954 361.829 928.503 361.946 929.133 361.946C930.085 361.946 930.913 361.756 931.616 361.375C932.319 360.994 932.861 360.525 933.242 359.969C933.638 359.412 933.843 358.885 933.857 358.387L935.527 361.067C935.293 361.668 934.971 362.29 934.561 362.935C934.165 363.579 933.66 364.187 933.044 364.759C932.429 365.315 931.689 365.777 930.825 366.143C929.961 366.494 928.936 366.67 927.749 366.67C926.24 366.67 924.871 366.37 923.64 365.769C922.424 365.154 921.458 364.312 920.74 363.242C920.037 362.159 919.685 360.928 919.685 359.551C919.685 358.306 919.919 357.2 920.388 356.233C920.857 355.266 921.545 354.453 922.454 353.794C923.376 353.12 924.526 352.615 925.903 352.278C927.28 351.927 928.877 351.751 930.693 351.751H934.363Z" fill="black"/>
</svg>